{
  "asset": {
    "generator": "Khronos glTF Blender I/O v1.8.19",
    "version": "2.0"
  },
  "scene": 0,
  "scenes": [
    {
      "name": "Scene",
      "nodes": [
        0
      ]
    }
  ],
  "nodes": [
    {
      "mesh": 0,
      "name": "sphere_gltf"
    }
  ],
  "materials": [
    {
      "doubleSided": true,
      "name": "mud_cracked_dry_03",
      "normalTexture": {
        "index": 0
      },
      "pbrMetallicRoughness": {
        "baseColorTexture": {
          "index": 1
        },
        "metallicFactor": 0,
        "metallicRoughnessTexture": {
          "index": 2
        }
      }
    }
  ],
  "meshes": [
    {
      "name": "Sphere.001",
      "primitives": [
        {
          "attributes": {
            "POSITION": 0,
            "NORMAL": 1,
            "TEXCOORD_0": 2
          },
          "indices": 3,
          "material": 0
        }
      ]
    }
  ],
  "textures": [
    {
      "sampler": 0,
      "source": 0
    },
    {
      "sampler": 0,
      "source": 1
    },
    {
      "sampler": 0,
      "source": 2
    }
  ],
  "images": [
    {
      "mimeType": "image/jpeg",
      "name": "mud_cracked_dry_03_nor_gl_8k",
      "uri": "textures/mud_cracked_dry_03_nor_gl_2k.jpg"
    },
    {
      "mimeType": "image/jpeg",
      "name": "mud_cracked_dry_03_diff_8k",
      "uri": "textures/mud_cracked_dry_03_diff_2k.jpg"
    },
    {
      "mimeType": "image/jpeg",
      "name": "mud_cracked_dry_03_rough_8k",
      "uri": "textures/mud_cracked_dry_03_rough_2k.jpg"
    }
  ],
  "accessors": [
    {
      "bufferView": 0,
      "componentType": 5126,
      "count": 53901,
      "max": [
        0.7601787447929382,
        0.7607938647270203,
        0.7595058083534241
      ],
      "min": [
        -0.7601786255836487,
        -0.7609251141548157,
        -0.7595124840736389
      ],
      "type": "VEC3"
    },
    {
      "bufferView": 1,
      "componentType": 5126,
      "count": 53901,
      "type": "VEC3"
    },
    {
      "bufferView": 2,
      "componentType": 5126,
      "count": 53901,
      "type": "VEC2"
    },
    {
      "bufferView": 3,
      "componentType": 5123,
      "count": 322170,
      "type": "SCALAR"
    }
  ],
  "bufferViews": [
    {
      "buffer": 0,
      "byteLength": 646812,
      "byteOffset": 0
    },
    {
      "buffer": 0,
      "byteLength": 646812,
      "byteOffset": 646812
    },
    {
      "buffer": 0,
      "byteLength": 431208,
      "byteOffset": 1293624
    },
    {
      "buffer": 0,
      "byteLength": 644340,
      "byteOffset": 1724832
    }
  ],
  "samplers": [
    {
      "magFilter": 9729,
      "minFilter": 9987
    }
  ],
  "buffers": [
    {
      "byteLength": 2369172,
      "uri": "mud_cracked_dry_03.bin"
    }
  ]
}